<svg width="648" height="216" viewBox="0 0 648 216" fill="none" xmlns="http://www.w3.org/2000/svg">
<rect width="648" height="215.215" rx="35.3454" fill="white"/>
<path d="M24.216 165.588L71.6956 147.142L119.095 165.588L71.6956 184.356L24.216 165.588Z" fill="#12209A" stroke="#12209A" stroke-width="0.476211"/>
<path d="M119.591 136.886V151.417L71.7828 132.903L71.6965 132.87L71.6103 132.904L24.128 151.416V136.885L71.6971 118.139L119.591 136.886Z" fill="#1B2ED3" stroke="#1B2ED3" stroke-width="0.476211"/>
<path d="M119.265 107.86V122.39L71.7829 103.704L71.696 103.67L71.609 103.704L23.8016 122.391V107.86L71.6954 88.9397L119.265 107.86Z" fill="#4B5BF2" stroke="#4B5BF2" stroke-width="0.476211"/>
<path d="M119.591 79.241V93.7729L71.7826 75.3054L71.6965 75.2722L71.6105 75.3056L24.128 93.772V79.2406L71.6971 60.3813L119.591 79.241Z" fill="#B1B8FA" stroke="#B1B8FA" stroke-width="0.476211"/>
<path d="M119.265 49.6455V64.1773L71.7817 45.784L71.696 45.7508L71.6102 45.7838L23.8016 64.1782V49.6459L71.6954 30.8596L119.265 49.6455Z" fill="#DBDDF9" stroke="#DBDDF9" stroke-width="0.476211"/>
<path d="M299.85 150.206V53.51H326.649L365.327 116.639H351.237L388.811 53.51H415.609L415.886 150.206H386.186L385.91 98.2666H390.606L364.913 141.504H350.547L323.748 98.2666H329.55V150.206H299.85Z" fill="#CA2D2D"/>
<path d="M136.614 150.206V53.51H188.278C201.631 53.51 211.485 55.9044 217.839 60.6932C224.193 65.3899 227.371 71.4219 227.371 78.7892C227.371 83.6701 225.989 88.0444 223.227 91.9123C220.556 95.688 216.642 98.681 211.485 100.891C206.328 103.101 199.973 104.207 192.422 104.207L195.185 96.7471C202.736 96.7471 209.229 97.8061 214.662 99.9242C220.187 102.042 224.424 105.127 227.371 109.179C230.41 113.139 231.929 117.928 231.929 123.546C231.929 131.926 228.43 138.465 221.431 143.161C214.524 147.858 204.394 150.206 191.04 150.206H136.614ZM168.662 127.414H188.278C191.869 127.414 194.54 126.769 196.29 125.48C198.132 124.19 199.052 122.303 199.052 119.816C199.052 117.33 198.132 115.442 196.29 114.152C194.54 112.863 191.869 112.218 188.278 112.218H166.452V90.669H183.857C187.541 90.669 190.212 90.0704 191.869 88.8732C193.619 87.584 194.494 85.7882 194.494 83.4859C194.494 81.0915 193.619 79.2957 191.869 78.0985C190.212 76.9013 187.541 76.3027 183.857 76.3027H168.662V127.414Z" fill="#CA2D2D"/>
<path d="M237.943 150.206V53.51H270.543V150.206H237.943Z" fill="#CA2D2D"/>
<path d="M292.714 24.3135H333.25L277.237 184.983H235.964L292.714 24.3135Z" fill="white"/>
<path d="M242.162 177.665L294.396 28.5625H326.052L273.819 177.665H242.162Z" fill="#12209A"/>
<path d="M411.697 150.206L453.967 53.51H486.015L528.285 150.206H494.58L463.361 68.9815H476.069L444.85 150.206H411.697ZM436.838 133.354L445.126 109.87H489.607L497.895 133.354H436.838Z" fill="#CA2D2D"/>
<path d="M514.924 150.206L558.023 89.9783L557.884 112.771L516.167 53.51H552.773L577.086 89.4258L561.476 89.5639L585.236 53.51H620.323L578.605 111.528V88.8732L622.395 150.206H585.098L560.785 112.633L575.842 112.495L552.083 150.206H514.924Z" fill="#CA2D2D"/>
</svg>
